<svg width="1213" height="1213" viewBox="0 0 1213 1213" fill="none" xmlns="http://www.w3.org/2000/svg">
<path d="M349.343 887.321L350.016 811.524C350.016 811.524 349.343 810.177 348.669 810.177V807.482C348.669 807.482 350.016 807.482 350.016 805.797L349.006 381.335C349.006 373.587 359.449 370.892 364.502 370.892H851.623C857.013 370.892 863.751 379.313 863.751 384.367V885.3C863.751 891.7 858.361 898.775 851.286 898.775H360.123C353.722 898.775 350.353 891.027 349.343 886.984V887.321ZM362.481 378.64C360.46 378.64 357.428 381.672 355.743 382.682C354.059 383.693 353.048 385.377 353.048 388.409V884.289C353.048 884.289 353.722 884.963 354.396 885.3V385.714L355.743 886.31L363.155 894.395H850.95C853.308 891.027 858.024 890.69 859.035 886.31V864.077V832.747V827.357V826.01V812.872V423.444V420.749V397.168L860.382 389.42V879.91C860.382 879.91 862.066 879.91 863.077 879.91L862.403 764.698C862.403 754.592 862.403 745.833 862.403 735.727V639.381V613.778V589.523C860.382 582.112 862.403 576.385 862.403 569.311V401.884C862.403 395.483 861.393 389.42 859.371 384.367L851.623 379.65C851.623 379.65 852.297 378.303 850.613 378.303H359.112C359.786 380.324 361.47 379.65 362.144 379.65L362.481 378.64Z" fill="#49C1ED"/>
<path d="M348.669 807.155V381.008L350.016 805.47C350.016 806.818 349.006 807.155 348.669 807.155Z" fill="#49C1ED"/>
<path d="M349.343 887.33L348.669 809.849C348.669 809.849 350.016 810.185 350.016 811.196L349.343 886.993V887.33Z" fill="#49C1ED"/>
<path d="M851.612 378.655L859.36 383.372C858.687 385.393 858.013 388.088 860.034 389.098L858.687 396.847C858.687 396.847 857.339 397.857 857.339 399.542V418.07C857.339 418.07 858.013 420.428 858.687 420.765V423.46C858.687 423.46 857.339 423.46 857.339 425.144V811.203C857.339 811.203 858.35 812.887 858.687 812.887V826.025C858.687 826.025 857.002 827.71 858.687 827.373V832.763C858.687 832.763 857.339 833.773 857.339 835.458V861.734C857.339 861.734 857.676 864.092 858.687 864.429V886.663C857.676 891.042 852.96 891.379 850.602 894.748H362.807L355.395 886.663L354.048 386.067C355.732 386.067 355.732 384.382 355.395 383.708C357.08 382.698 360.112 379.666 362.133 379.666H851.612V378.655ZM368.533 390.446V392.467C368.533 392.467 365.838 392.467 365.838 394.825V707.782C363.817 709.467 363.817 713.846 365.838 715.53V740.459C363.817 742.143 363.817 746.523 365.838 748.207V790.316C365.838 790.316 365.165 791.327 365.838 791.664V875.546C364.154 875.546 364.491 877.23 365.838 876.893C365.838 877.23 366.512 877.567 366.849 877.904L368.197 879.588C368.197 879.588 369.881 880.936 372.576 880.936H845.885C845.548 878.915 846.559 878.578 846.896 878.241C847.233 877.904 847.57 876.893 849.254 876.893V751.239C849.254 751.239 848.58 749.555 848.243 749.892V747.197C848.243 747.197 849.591 747.197 849.591 745.512V394.825C849.591 394.825 848.917 393.141 848.243 393.141H846.896C846.896 393.141 845.885 392.13 845.548 391.793C845.212 391.793 844.875 390.783 844.201 390.783C844.201 390.446 844.201 389.435 842.517 389.435H370.218C370.218 389.435 368.533 390.446 368.533 390.783V390.446Z" fill="#49C1ED"/>
<path d="M860.05 389.087C858.028 388.413 858.702 385.381 859.376 383.36C861.397 388.413 862.745 394.14 862.745 400.877V568.304C862.745 575.716 860.387 581.105 862.408 588.517V612.772V638.374V734.72C862.408 744.827 862.408 753.585 862.408 763.692L863.082 878.903C863.082 878.903 861.397 878.903 860.387 878.903V388.413L860.05 389.087Z" fill="#49C1ED"/>
<path d="M354.063 385.043V884.628C354.063 884.628 352.715 883.954 352.715 883.618V387.738C352.715 384.706 353.726 383.021 355.41 382.011C355.41 382.684 355.747 384.706 354.063 384.369V385.043Z" fill="#49C1ED"/>
<path d="M851.626 378.654H362.146C362.146 378.654 359.788 379.328 359.114 377.307H850.615C852.299 377.307 852.299 378.654 851.626 378.654Z" fill="#49C1ED"/>
<path d="M858.701 812.545C858.701 812.545 857.354 812.545 857.354 810.86V424.802C857.354 424.802 858.364 423.117 858.701 423.117V812.545Z" fill="#49C1ED"/>
<path d="M858.701 863.754C858.701 863.754 857.354 862.743 857.354 861.059V834.783C857.354 834.783 857.69 832.425 858.701 832.088V863.417V863.754Z" fill="#49C1ED"/>
<path d="M858.701 420.75C858.701 420.75 857.354 419.739 857.354 418.055V399.527C857.354 399.527 858.027 397.168 858.701 396.832V420.413V420.75Z" fill="#49C1ED"/>
<path d="M858.694 827.032C858.694 827.032 857.01 825.347 858.694 825.684V827.032Z" fill="#49C1ED"/>
<path d="M845.562 393.138C845.562 396.507 846.573 400.549 844.214 403.581C844.214 401.897 844.551 400.549 843.878 398.191H369.894V872.848C371.579 872.174 371.579 873.859 371.242 874.533C370.231 874.533 369.221 875.543 368.547 876.554C368.547 876.891 367.536 877.228 367.199 877.564C367.199 877.564 366.526 877.228 366.189 876.554C365.852 875.88 366.189 875.543 366.189 875.206V791.324V789.977V747.868V740.119V715.191V707.443V394.486C366.189 392.465 367.873 391.791 368.21 392.128L845.899 392.801L845.562 393.138Z" fill="#49C1ED"/>
<path d="M846.9 393.129V878.229C846.9 878.229 845.216 878.903 845.89 880.587L368.538 879.24L367.19 877.555C367.19 877.555 368.201 876.882 368.538 876.545C371.233 878.566 373.254 876.545 376.96 876.545H845.89C845.89 876.545 845.89 874.861 845.89 873.85H402.899L371.233 874.524C371.57 873.85 371.233 872.165 369.885 872.839H843.532C845.216 868.797 844.542 865.091 844.542 862.396C844.542 862.059 845.89 861.049 845.89 860.375C845.89 859.701 845.216 859.027 844.542 858.354V403.572C846.9 400.54 845.89 396.498 845.89 393.129V391.782C845.89 391.782 846.9 392.792 847.237 393.129H846.9Z" fill="#49C1ED"/>
<path d="M848.256 746.849V749.544L849.266 876.883C849.266 876.883 847.245 877.893 846.908 878.23V393.13H848.256V747.186V746.849Z" fill="#49C1ED"/>
<path d="M845.899 880.595H372.59C369.895 880.595 369.221 880.595 368.21 879.247L845.562 880.595H845.899Z" fill="#49C1ED"/>
<path d="M844.206 390.441C844.206 390.441 845.217 391.452 845.553 391.452L367.865 392.125V390.104H844.206V390.441Z" fill="#49C1ED"/>
<path d="M844.215 390.431H368.21C368.21 390.431 368.547 389.084 369.895 389.084H842.194C842.194 389.084 843.878 389.758 843.878 390.431H844.215Z" fill="#49C1ED"/>
<path d="M848.257 746.857V392.802C848.257 392.802 849.605 392.802 849.605 394.486V745.173C849.605 745.173 848.594 746.857 848.257 746.857Z" fill="#49C1ED"/>
<path d="M849.268 876.886L848.257 749.547C848.257 749.547 849.605 749.884 849.605 750.894V876.549L849.268 876.886Z" fill="#49C1ED"/>
<path d="M365.844 715.515C363.823 713.83 363.823 709.451 365.844 707.767V715.515Z" fill="#49C1ED"/>
<path d="M365.844 748.199C363.823 746.514 363.823 742.135 365.844 740.451V748.199Z" fill="#49C1ED"/>
<path d="M365.845 791.655C365.845 791.655 365.171 790.644 365.845 790.308V791.655Z" fill="#49C1ED"/>
<path d="M366.181 876.893C366.181 876.893 364.159 875.546 366.181 875.546C366.181 875.883 366.181 876.557 366.181 876.893Z" fill="#49C1ED"/>
<path d="M368.539 876.547C368.539 876.547 370.223 874.525 371.234 874.525L402.9 873.852H845.891C845.891 873.852 845.891 875.536 845.891 876.547H376.961C373.255 876.547 371.234 878.568 368.539 876.547Z" fill="#49C1ED"/>
<path d="M845.562 391.782V393.129L368.21 392.455L845.562 391.782Z" fill="#49C1ED"/>
<path d="M844.211 862.399V858.357C844.211 858.357 845.222 859.704 845.558 860.378C845.895 861.052 844.548 862.063 844.211 862.399Z" fill="#49C1ED"/>
<path d="M520.462 734.052C520.462 734.052 521.809 732.704 521.809 731.357H523.157V732.704C523.157 733.378 523.831 734.052 524.504 734.052H695.974C695.974 734.052 697.658 733.041 697.658 732.704V728.662L696.648 632.989C698.332 632.989 698.332 631.305 698.669 630.968C698.669 630.968 711.133 633.663 713.154 616.819L694.626 600.649V598.628L715.849 615.809C717.197 619.177 713.491 624.904 711.133 626.589C708.775 630.968 705.406 632.652 700.016 632.989V736.41H525.852C523.157 736.41 520.462 736.073 520.462 733.715V734.052Z" fill="#49C1ED"/>
<path d="M521.809 731.357C521.809 731.357 521.809 733.715 520.462 734.052V632.99H521.809V731.357Z" fill="#49C1ED"/>
<path d="M694.968 598.635V600.656L661.28 573.37L641.741 557.873L608.391 532.271L537.984 588.866L503.959 617.5C505.307 625.922 513.729 631.649 521.477 630.975V632.996H520.129C515.076 634.681 511.034 630.975 507.665 627.27C505.644 625.248 499.917 621.206 501.938 617.5C506.318 612.447 512.044 607.394 517.434 603.015L559.544 568.99L578.072 553.494C587.504 545.746 597.611 539.345 606.369 530.25C613.107 532.945 617.823 537.324 623.213 541.703L648.816 561.916L694.294 598.635H694.968Z" fill="#49C1ED"/>
<path d="M694.627 600.658L713.155 616.828C711.134 633.672 699.006 630.977 698.669 630.977C697.996 630.977 697.996 632.998 696.648 632.998V726.986C696.648 726.986 697.322 728.671 697.659 728.334V732.376H524.505H523.157V731.029V728.334C523.157 728.334 524.505 727.997 524.505 726.986V634.346C522.821 633.672 522.147 632.324 521.81 630.977C514.062 631.651 505.303 625.924 504.292 617.502L538.317 588.867L608.724 532.272L642.074 557.875L661.613 573.371L694.964 600.658H694.627ZM603.334 567.307C596.933 571.35 590.869 575.729 586.49 581.793L582.448 584.488L581.1 585.836C581.1 585.836 580.089 586.509 579.752 586.846L550.444 610.091C546.739 612.786 545.391 615.817 545.391 620.197L544.717 707.784C544.717 707.784 545.728 709.469 546.065 709.469C546.065 709.469 546.065 710.479 546.065 710.816C546.065 711.153 546.065 712.837 546.739 713.174H564.256C564.256 713.174 566.614 713.511 567.288 713.174V653.211C566.951 651.189 565.941 648.831 566.951 647.147C568.299 644.452 571.331 646.473 573.689 646.473H648.475C648.475 646.473 651.844 645.462 653.191 646.473C654.876 647.484 654.202 649.842 654.202 651.863L653.528 709.469C653.528 711.49 654.876 713.174 656.223 713.174H673.404C673.404 713.174 674.751 712.837 674.751 711.827V615.144L667.003 608.406L656.897 599.984L612.429 563.265C612.429 563.265 611.082 563.265 610.745 563.265C609.061 562.254 607.713 565.623 604.344 567.981L603.334 567.307ZM631.968 667.022H588.848V712.837H631.968V667.022Z" fill="#49C1ED"/>
<path d="M697.662 732.703C697.662 732.703 697.662 734.051 695.978 734.051H524.508V732.703H697.662Z" fill="#49C1ED"/>
<path d="M524.169 634.352L523.159 728.677V731.372H521.811V633.004V630.983C522.485 632.667 522.822 634.015 524.169 634.352Z" fill="#49C1ED"/>
<path d="M697.665 728.671C697.665 728.671 696.318 728.334 696.318 727.323V633.335L697.665 729.007V728.671Z" fill="#49C1ED"/>
<path d="M524.507 734.051C524.507 734.051 523.16 733.377 523.16 732.703H524.507V734.051Z" fill="#49C1ED"/>
<path d="M655.558 643.435V644.782V712.831C654.211 712.831 652.863 711.146 652.863 709.125L653.537 651.52C653.537 649.161 654.211 647.14 652.526 646.13C651.179 645.119 649.494 646.13 647.81 646.13H573.024C570.666 646.13 567.634 644.108 566.286 646.803C565.276 648.488 566.286 650.509 566.286 652.867V712.831C566.286 712.831 564.265 713.168 563.591 713.168V643.771H655.558V643.435Z" fill="#49C1ED"/>
<path d="M655.557 643.433H563.927L563.59 712.83H546.072C546.072 712.83 545.398 710.472 545.398 710.135H546.746L548.093 711.482H562.242L562.579 642.086H653.872C653.872 642.086 655.557 642.76 655.22 643.097L655.557 643.433Z" fill="#49C1ED"/>
<path d="M631.977 667.022V712.837H588.857V667.022H631.977ZM630.629 668.37H589.868V711.49H630.629V668.37Z" fill="#49C1ED"/>
<path d="M579.414 586.85C578.067 590.555 574.024 592.576 570.993 595.271L547.411 614.81V710.146H545.727C545.727 710.146 545.727 709.135 545.727 708.798L545.053 619.526C545.053 615.147 546.738 612.452 550.106 609.42L579.414 586.176V586.85Z" fill="#49C1ED"/>
<path d="M672.739 712.837V711.489V622.217C671.054 620.533 672.065 617.164 672.065 615.143C670.381 612.111 667.012 610.09 664.654 608.069L666.338 607.395L674.086 614.132V710.816C674.086 710.816 673.076 712.5 672.739 712.163V712.837Z" fill="#49C1ED"/>
<path d="M523.16 728.663L524.17 634.338V726.979C524.17 726.979 523.833 728.663 523.16 728.327V728.663Z" fill="#49C1ED"/>
<path d="M545.397 709.135C545.397 709.135 544.05 708.461 544.05 707.451L544.724 619.863L545.397 709.135Z" fill="#49C1ED"/>
<path d="M671.391 711.485H672.738V712.832H655.558V644.784C656.231 644.784 656.905 645.121 656.905 646.131V711.485H671.391Z" fill="#49C1ED"/>
<path d="M666.335 608.075L664.651 608.412L619.173 571.355L611.425 562.934L655.892 599.653L666.335 608.075Z" fill="#49C1ED"/>
<path d="M586.159 581.795C590.539 575.731 596.602 571.352 603.003 567.309C597.95 572.699 592.223 577.752 586.159 581.795Z" fill="#49C1ED"/>
<path d="M548.095 711.48L546.748 710.469L547.084 614.797L548.095 711.48Z" fill="#49C1ED"/>
<path d="M672.729 711.496H671.381V623.909C671.381 622.898 672.055 622.561 672.729 622.561V711.833V711.496Z" fill="#49C1ED"/>
</svg>
